<?xml version="1.0" standalone="no"?>
<!DOCTYPE svg PUBLIC "-//W3C//DTD SVG 20010904//EN"
 "http://www.w3.org/TR/2001/REC-SVG-20010904/DTD/svg10.dtd">
<svg version="1.0" xmlns="http://www.w3.org/2000/svg"
 width="1080.000000pt" height="1080.000000pt" viewBox="0 0 1080.000000 1080.000000"
 preserveAspectRatio="xMidYMid meet">
<metadata>
Created by potrace 1.11, written by Peter Selinger 2001-2013
</metadata>
<g transform="translate(0.000000,1080.000000) scale(0.100000,-0.100000)"
fill="#000000" stroke="none">
<path d="M427 9883 c-4 -4 -7 -1533 -7 -3397 1 -2578 4 -3394 13 -3405 7 -9 8
-12 1 -8 -13 8 -13 -211 0 -232 6 -9 5 -12 -2 -7 -14 9 -13 -54 2 -73 7 -10 7
-13 0 -8 -14 8 -14 -715 1 -725 6 -5 5 -8 -4 -8 -11 0 -11 -3 0 -17 12 -14 12
-16 0 -8 -11 6 -13 4 -8 -9 4 -10 7 -21 7 -26 0 -12 104 -9 112 4 6 8 8 8 8 0
0 -8 357 -11 1300 -12 l1300 0 0 29 c0 16 5 29 11 29 5 0 7 5 4 10 -4 6 -11 7
-17 4 -6 -4 -6 1 1 14 8 15 8 22 -2 25 -6 3 -7 6 -1 6 7 1 10 28 8 76 -2 52 1
75 9 75 8 0 8 3 2 8 -14 10 -16 71 -3 95 7 14 7 17 -1 13 -15 -10 -14 17 2 33
10 11 10 13 -1 7 -15 -9 -16 10 -2 19 8 5 8 11 0 19 -13 16 -9 66 5 66 5 0 3
5 -5 10 -13 8 -13 13 -2 31 9 14 10 19 2 14 -9 -5 -10 -1 -5 15 5 16 4 20 -5
15 -7 -4 -5 5 4 23 11 21 12 33 5 37 -7 5 -6 12 3 23 9 10 9 13 1 9 -8 -5 -11
0 -10 13 1 11 5 20 10 20 4 0 5 5 2 10 -4 6 -12 7 -18 4 -9 -5 -9 -4 0 6 8 9
9 19 3 31 -7 12 -6 20 2 25 7 4 8 3 4 -4 -4 -7 -2 -12 3 -12 14 0 14 17 1 25
-8 5 -7 12 2 23 8 10 9 13 1 9 -13 -8 -13 39 0 61 5 6 5 18 0 25 -12 19 -13
88 0 80 6 -4 7 -1 1 8 -12 19 -16 51 -6 45 5 -3 9 1 9 9 0 8 -4 12 -8 9 -9 -5
-6 47 4 64 5 6 5 18 0 25 -12 19 -13 88 0 80 6 -4 7 -1 1 8 -12 19 -16 51 -6
45 5 -3 9 1 9 9 0 8 -4 12 -8 9 -9 -5 -6 47 4 64 5 6 5 18 0 24 -12 20 -13 89
0 81 6 -4 7 -1 1 8 -12 19 -16 51 -6 45 5 -3 9 1 9 9 0 8 -4 12 -8 9 -9 -5 -6
47 4 64 5 6 5 18 0 25 -12 19 -13 88 0 80 6 -4 7 -1 1 8 -12 19 -16 51 -6 45
5 -3 9 1 9 9 0 8 -4 12 -8 9 -9 -5 -6 52 3 61 9 9 -3 45 -13 39 -14 -8 -10 3
7 20 8 9 11 16 6 16 -5 0 -9 20 -9 45 0 25 4 45 9 45 5 0 6 5 3 10 -4 6 -11 8
-17 4 -5 -3 -3 8 6 24 11 21 12 33 5 37 -7 5 -6 12 3 23 9 10 9 13 1 9 -8 -5
-11 0 -10 13 1 11 5 20 10 20 4 0 5 5 2 10 -4 6 -12 7 -18 4 -9 -5 -9 -4 0 6
8 9 9 19 3 31 -7 12 -6 20 2 25 7 4 8 3 4 -4 -4 -7 -2 -12 3 -12 14 0 14 17 1
25 -8 5 -7 12 2 23 8 10 9 13 1 9 -13 -8 -13 39 0 61 5 6 5 18 0 25 -12 18
-10 87 2 87 5 0 4 4 -4 9 -13 8 -13 12 0 27 8 10 9 15 2 11 -8 -5 -11 0 -10
13 1 11 6 20 12 20 5 0 4 4 -4 9 -13 8 -13 12 0 27 8 10 9 15 2 11 -8 -5 -11
0 -10 13 1 11 6 20 12 20 5 0 4 4 -4 9 -13 8 -13 12 0 27 9 11 9 15 1 10 -14
-8 -12 19 2 43 6 10 5 12 -2 7 -14 -9 -15 -5 -3 28 7 17 7 26 -1 28 -8 3 -8
10 1 25 6 13 7 24 2 27 -10 7 -9 25 2 44 5 6 5 12 0 12 -10 0 -9 52 1 68 4 7
3 12 -3 12 -10 0 -5 45 6 63 3 6 2 7 -3 4 -5 -3 -10 3 -10 13 0 10 4 16 8 14
4 -3 8 -1 8 3 0 5 9 9 20 10 13 1 18 -2 14 -9 -5 -7 -2 -8 7 -3 19 12 49 14
49 3 0 -5 5 -6 12 -2 18 11 78 11 78 1 0 -5 7 -4 15 3 11 9 15 9 15 1 0 -7 5
-9 12 -5 20 12 59 14 52 2 -4 -5 4 -4 17 2 17 10 24 10 27 2 3 -9 9 -9 24 -1
16 8 19 8 13 -1 -6 -9 -3 -9 13 -1 26 14 35 14 26 0 -4 -7 2 -6 17 1 17 10 24
10 27 2 3 -9 9 -9 24 -1 16 8 19 8 13 -1 -6 -9 -3 -9 13 -1 26 14 35 14 26 0
-4 -7 2 -6 17 1 17 10 24 10 27 2 3 -9 9 -9 24 -1 16 8 19 8 13 -1 -6 -9 -3
-9 13 -1 27 14 35 14 26 -1 -4 -7 -3 -8 5 -4 20 13 61 17 61 6 0 -8 6 -7 20 0
15 8 20 8 20 -1 0 -8 5 -7 17 2 13 11 17 11 21 1 3 -10 7 -10 20 0 12 10 16
10 19 1 3 -7 9 -13 14 -13 6 0 8 3 6 8 -3 4 6 8 19 8 13 1 24 -2 24 -7 0 -6
10 -5 21 2 16 8 20 8 14 -1 -6 -9 -3 -9 12 -2 11 6 25 7 33 2 9 -6 18 -4 23 3
7 9 10 9 14 -1 2 -6 9 -10 14 -6 16 10 49 13 49 5 0 -12 33 -8 43 4 6 6 10 6
14 -3 2 -6 9 -10 14 -6 19 11 49 12 49 1 0 -7 4 -6 10 3 8 13 10 13 10 1 0
-12 3 -12 12 -3 7 7 17 12 23 12 5 0 3 -5 -5 -10 -9 -6 -10 -10 -3 -10 6 0 15
5 19 11 4 8 9 7 16 -2 7 -11 11 -11 15 -1 2 6 9 12 14 12 6 0 8 -4 5 -8 -7
-12 37 -9 47 3 6 6 10 6 14 -3 2 -6 9 -10 14 -6 19 11 49 12 49 1 0 -7 4 -6
10 3 8 13 10 13 10 1 0 -12 3 -12 12 -3 7 7 17 12 23 12 5 0 3 -5 -5 -10 -9
-6 -10 -10 -3 -10 6 0 15 5 19 11 4 8 9 7 16 -2 7 -11 11 -11 15 -1 2 6 9 12
14 12 6 0 8 -4 5 -8 -7 -12 37 -9 47 3 6 6 10 6 14 -3 2 -6 9 -10 14 -6 19 11
49 12 49 1 0 -7 4 -6 10 3 8 13 10 13 10 1 0 -12 3 -12 12 -3 7 7 17 12 23 12
5 0 3 -5 -5 -10 -9 -6 -10 -10 -3 -10 6 0 15 5 19 11 4 8 9 7 16 -2 7 -11 11
-11 15 -1 2 6 9 12 14 12 6 0 8 -4 5 -8 -7 -12 37 -9 47 3 6 6 10 6 14 -2 3
-9 10 -10 24 -3 14 8 19 7 19 -1 0 -8 4 -8 15 1 11 9 15 9 15 1 0 -7 5 -9 12
-4 19 11 58 11 58 0 0 -5 6 -4 14 2 10 9 16 9 21 1 5 -8 10 -8 20 0 9 8 15 8
20 0 3 -6 12 -7 18 -3 17 11 67 11 67 0 0 -5 6 -4 14 2 10 9 16 9 21 1 5 -8
10 -8 20 0 9 8 15 8 20 0 3 -6 12 -7 18 -3 16 10 67 11 67 1 0 -4 6 -8 13 -8
6 0 12 -13 13 -30 1 -17 -3 -30 -8 -30 -5 0 -6 -5 -2 -12 4 -7 8 -55 8 -108 1
-52 5 -101 10 -109 6 -10 6 -12 -2 -7 -9 5 -11 -16 -9 -81 2 -54 0 -94 -7
-102 -8 -11 -8 -13 1 -8 6 4 14 3 18 -3 3 -5 2 -10 -4 -10 -12 0 -9 -159 3
-179 6 -9 5 -12 -2 -7 -14 8 -13 -214 1 -231 6 -9 4 -15 -7 -19 -10 -4 -13
-11 -8 -18 4 -6 7 -69 6 -141 -1 -84 2 -135 10 -144 9 -12 8 -13 -3 -6 -11 6
-13 4 -8 -7 3 -9 0 -21 -6 -28 -9 -10 -9 -11 0 -6 6 3 14 2 18 -4 3 -5 2 -10
-3 -10 -6 0 -9 -42 -9 -100 1 -59 6 -100 12 -100 6 0 6 -3 -1 -8 -14 -9 -13
-105 1 -114 7 -5 7 -8 0 -8 -13 0 -14 -189 -1 -209 6 -9 5 -12 -2 -7 -7 4 -10
-2 -8 -16 8 -57 -15 -54 394 -53 207 1 382 3 388 3 10 2 11 23 4 57 -1 6 -1
12 0 15 6 15 4 162 -2 166 -5 3 -5 11 -1 17 11 18 11 57 1 63 -5 3 -1 15 9 27
10 11 13 17 7 14 -13 -7 -27 19 -19 33 12 20 13 120 2 120 -8 0 -8 3 -2 8 6 4
10 27 10 52 -1 25 4 51 10 59 7 11 7 13 -2 8 -14 -9 -13 109 1 132 7 10 5 12
-4 6 -9 -6 -10 -2 -5 15 6 17 4 21 -6 15 -8 -5 -5 2 6 15 11 13 15 20 9 17
-16 -9 -25 18 -11 32 9 9 8 14 -3 21 -8 5 -10 10 -4 10 12 0 13 49 0 69 -6 10
-6 12 2 7 7 -4 12 -2 12 3 0 6 -6 11 -12 11 -8 0 -9 3 -3 8 6 4 10 27 10 52
-1 25 4 51 10 59 7 11 7 13 -2 8 -14 -9 -13 109 1 132 7 10 5 12 -4 6 -9 -6
-10 -2 -5 15 5 17 4 21 -5 15 -9 -6 -11 -4 -4 6 13 21 13 62 0 78 -8 11 -8 13
2 7 6 -4 12 -3 12 3 0 5 -5 13 -10 16 -6 4 -7 12 -3 18 11 17 11 57 1 63 -5 3
-4 12 3 20 6 8 8 14 4 14 -4 0 -1 8 6 17 10 11 10 14 2 9 -17 -9 -17 6 -1 23
9 10 9 12 1 7 -6 -3 -14 -2 -18 4 -3 5 -2 10 2 10 11 0 10 91 -1 109 -6 10 -6
12 2 7 13 -8 12 20 -1 41 -4 6 -3 14 2 17 12 8 12 78 0 93 -7 8 -4 15 8 22 10
6 13 11 6 11 -8 0 -10 18 -7 57 2 35 -1 62 -9 72 -8 10 -9 13 0 8 13 -8 13 39
0 60 -4 6 -3 14 2 17 5 4 7 20 5 36 -4 20 -1 30 8 30 10 0 9 3 -1 9 -13 8 -13
12 0 27 8 10 9 15 2 11 -6 -4 -14 -3 -18 3 -3 5 -2 10 4 10 6 0 7 7 4 17 -5
11 -3 14 6 8 10 -6 11 -3 3 11 -5 11 -8 28 -6 39 1 10 -3 26 -9 34 -9 12 -9
13 1 7 6 -4 12 -3 12 3 0 5 -5 13 -10 16 -6 4 -7 12 -3 18 11 17 11 57 1 63
-5 3 -4 12 3 20 6 8 8 14 4 14 -4 0 -1 8 6 17 10 11 10 14 2 9 -17 -9 -17 6
-1 23 9 10 9 12 1 7 -6 -3 -14 -2 -18 4 -3 5 -2 10 2 10 11 0 10 91 -1 109 -6
10 -6 12 2 7 7 -4 12 -3 12 3 0 5 -5 13 -10 16 -6 4 -7 12 -3 18 11 17 11 57
1 63 -5 3 -4 12 3 20 6 8 8 14 4 14 -4 0 -1 8 6 17 10 11 10 14 2 9 -17 -9
-17 6 -1 23 9 10 9 12 1 7 -6 -3 -14 -2 -18 4 -3 5 -2 10 2 10 11 0 10 91 -1
109 -6 10 -6 12 2 7 7 -4 12 -3 12 3 0 5 -5 13 -10 16 -6 4 -7 12 -3 18 11 17
11 57 1 63 -5 3 -4 12 3 20 6 8 8 14 4 14 -4 0 -1 8 6 17 10 11 10 14 2 9 -7
-4 -13 -3 -13 1 0 5 6 15 13 22 8 10 8 12 0 7 -6 -3 -14 -2 -18 4 -3 5 -2 10
4 10 10 0 10 18 -2 37 -4 6 -3 14 1 17 5 3 7 22 5 43 -5 53 -5 55 1 80 2 13 0
25 -5 29 -7 4 -6 10 0 18 6 7 8 25 5 42 -7 34 -7 42 0 71 2 13 0 25 -5 29 -7
4 -6 10 0 18 6 7 8 25 5 42 -7 34 -7 42 0 71 2 13 0 25 -5 29 -7 4 -6 10 0 18
6 7 8 25 5 42 -4 16 -6 34 -5 39 7 55 6 107 -1 111 -4 3 -5 11 -1 17 11 17 11
57 1 63 -4 3 -5 10 -2 16 11 17 12 60 3 84 -4 12 -5 25 -1 29 11 11 8 105 -3
105 -7 0 -7 3 0 8 12 8 14 172 2 172 -5 0 -5 5 -1 12 11 18 10 68 -1 68 -6 0
-6 3 1 8 11 8 11 62 0 81 -4 6 -3 11 2 11 4 0 7 16 6 35 -2 26 0 34 9 28 9 -5
9 -3 0 9 -7 8 -10 18 -6 21 3 4 1 7 -7 7 -9 0 -10 3 -1 13 8 10 7 17 -1 25 -8
8 -9 12 -1 12 12 0 12 18 0 38 -5 6 -4 12 1 12 6 0 8 9 5 19 -4 14 -13 19 -36
17 -18 -1 -38 2 -44 7 -8 6 -13 5 -13 -1 0 -7 -7 -9 -17 -5 -11 4 -14 3 -9 -5
5 -8 2 -10 -8 -6 -9 3 -14 10 -11 14 3 5 -9 5 -27 -1 -40 -11 -40 -11 -34 -1
2 4 -4 8 -15 8 -10 0 -19 -7 -19 -16 0 -11 -2 -12 -8 -2 -5 8 -16 10 -27 6
-12 -5 -16 -4 -11 4 4 7 -2 8 -24 2 -21 -6 -30 -5 -30 3 0 6 -7 2 -16 -9 -8
-10 -12 -13 -8 -5 5 11 1 12 -20 7 -15 -4 -25 -3 -23 1 3 4 -12 8 -34 8 -21 0
-39 -2 -39 -5 0 -7 -136 -3 -149 4 -6 4 -11 2 -11 -4 0 -6 -5 -8 -10 -5 -6 4
-18 1 -27 -7 -14 -11 -16 -11 -8 1 6 11 2 13 -19 7 -17 -4 -25 -3 -22 3 4 6
-5 7 -24 1 -17 -5 -32 -8 -34 -7 -3 1 -8 -1 -12 -5 -4 -5 -1 -8 6 -8 9 0 7 -5
-6 -16 -10 -8 -14 -13 -8 -10 7 3 15 -1 18 -10 3 -8 2 -12 -4 -9 -14 9 -12 -8
3 -24 10 -11 10 -13 0 -7 -16 9 -17 -8 -2 -36 7 -12 7 -18 1 -14 -12 7 -9 -65
4 -85 5 -9 2 -10 -10 -6 -13 5 -15 3 -8 -11 5 -9 8 -61 7 -114 -1 -63 3 -98 9
-98 8 0 8 -3 0 -8 -14 -9 -13 -304 1 -314 7 -5 7 -8 0 -8 -6 0 -11 -34 -11
-85 -1 -58 2 -82 10 -78 6 4 5 -1 -3 -10 -7 -9 -10 -17 -6 -17 4 0 1 -8 -6
-17 -8 -10 -9 -14 -2 -10 6 4 14 3 18 -3 3 -5 1 -10 -4 -10 -7 0 -10 -23 -7
-62 2 -36 -2 -69 -8 -77 -8 -11 -8 -13 1 -8 6 4 14 3 18 -3 3 -5 2 -10 -4 -10
-5 0 -9 -33 -8 -80 1 -47 6 -80 12 -80 6 0 6 -3 0 -8 -14 -9 -14 -232 0 -232
6 0 6 -3 -1 -8 -14 -9 -13 -224 1 -234 7 -5 7 -8 -1 -8 -14 0 -14 -110 1 -110
5 0 4 -4 -4 -9 -13 -8 -13 -12 0 -27 9 -11 9 -15 2 -10 -9 5 -13 0 -13 -13 0
-12 6 -21 13 -21 7 0 8 -3 2 -8 -13 -9 -17 -75 -5 -67 6 4 10 4 10 1 0 -3 -10
-10 -21 -17 -17 -9 -20 -8 -13 3 6 10 5 11 -7 2 -8 -7 -40 -10 -77 -9 -42 2
-60 0 -55 -7 4 -7 1 -8 -8 -2 -20 12 -122 12 -138 0 -11 -8 -13 -8 -8 1 5 8
-11 11 -56 9 -34 -1 -68 -5 -74 -9 -6 -4 -16 0 -23 8 -8 10 -17 12 -24 6 -6
-5 -33 -8 -59 -7 -26 2 -50 -1 -53 -6 -3 -4 -10 -5 -17 -1 -17 11 -57 10 -57
-2 0 -6 -3 -7 -8 0 -11 15 -84 16 -76 2 5 -8 2 -8 -7 1 -16 15 -33 16 -23 0 5
-7 3 -8 -6 -3 -19 12 -130 13 -123 2 4 -6 1 -7 -6 -2 -20 11 -71 12 -71 1 0
-7 -3 -8 -8 -1 -11 15 -84 16 -76 2 5 -8 2 -8 -7 1 -16 15 -33 16 -23 0 5 -7
3 -8 -6 -3 -19 12 -130 13 -123 2 4 -6 1 -7 -6 -2 -20 11 -71 12 -71 1 0 -7
-3 -8 -8 -1 -11 15 -84 16 -76 2 5 -8 2 -8 -7 1 -16 15 -33 16 -23 0 5 -7 3
-8 -6 -3 -19 12 -130 13 -123 2 4 -6 1 -7 -6 -2 -20 11 -71 12 -71 1 0 -7 -3
-8 -8 -1 -11 15 -84 16 -75 2 4 -7 -5 -4 -19 5 -15 10 -30 14 -33 9 -3 -5 -27
-8 -53 -7 -26 2 -53 -2 -61 -8 -11 -8 -13 -8 -8 1 4 6 3 14 -3 18 -5 3 -10 1
-10 -5 0 -7 -22 -9 -65 -7 -36 3 -68 0 -71 -5 -3 -5 -14 -2 -24 7 -11 10 -20
12 -24 6 -4 -5 -28 -8 -54 -7 -26 2 -52 -1 -58 -6 -7 -5 -16 -2 -24 7 -7 8
-17 11 -24 7 -15 -10 -76 -9 -76 1 0 5 -5 5 -11 1 -7 -4 -10 -1 -7 7 3 8 1 22
-3 31 -6 11 -5 19 3 24 7 4 8 3 4 -4 -4 -7 -2 -12 3 -12 14 0 14 17 1 25 -8 5
-7 12 2 23 8 10 9 13 1 9 -13 -8 -13 39 0 61 5 6 5 18 0 25 -12 19 -13 88 0
80 6 -4 7 -1 1 8 -12 19 -16 51 -6 45 5 -3 9 1 9 9 0 8 -4 12 -8 9 -9 -5 -6
47 4 64 5 6 5 18 0 25 -12 18 -10 87 2 87 5 0 4 4 -4 9 -13 8 -13 12 0 27 8
10 9 15 2 11 -8 -5 -11 0 -10 13 1 11 6 20 12 20 5 0 4 4 -4 9 -13 8 -13 12 0
27 8 10 9 15 2 11 -8 -5 -11 0 -10 13 1 11 6 20 12 20 5 0 4 4 -4 9 -13 8 -13
12 0 27 9 11 9 15 1 10 -14 -8 -12 19 2 43 6 10 5 12 -2 7 -14 -9 -15 -5 -3
28 7 17 7 26 -1 28 -8 3 -8 10 1 25 6 13 7 24 2 27 -10 7 -9 25 2 44 5 6 4 12
-2 12 -7 0 -7 8 -1 24 6 17 5 26 -2 28 -8 3 -8 10 1 25 6 13 7 24 2 27 -10 7
-9 25 2 44 5 6 4 12 -2 12 -7 0 -7 8 -1 25 5 14 6 25 1 25 -11 0 -9 49 2 68 5
6 4 12 -1 12 -6 0 -9 11 -8 25 0 14 6 25 11 25 6 0 5 4 -2 8 -12 8 -13 29 0
49 4 6 2 13 -4 15 -7 2 -7 12 1 32 9 25 8 28 -7 22 -15 -5 -15 -4 1 9 11 8 15
15 9 15 -14 0 -14 40 0 57 11 16 -1 35 -16 26 -7 -3 -3 4 8 17 11 13 15 20 8
17 -13 -8 -13 39 0 61 5 6 5 18 0 25 -12 19 -13 88 0 80 6 -4 7 -1 1 8 -14 24
-16 51 -2 43 10 -6 10 -4 0 8 -10 13 -10 17 0 21 10 4 10 6 1 6 -16 1 -17 37
-2 46 7 5 5 15 -5 30 -12 17 -13 26 -4 31 7 5 8 3 3 -6 -5 -9 -4 -11 4 -6 8 5
9 12 3 19 -14 17 -12 160 2 169 8 6 8 8 0 8 -7 0 -11 14 -10 34 1 30 -1 33
-22 30 -16 -3 -21 -1 -17 7 6 8 2 8 -14 0 -11 -7 -21 -9 -21 -5 0 3 -7 1 -16
-6 -8 -8 -14 -9 -13 -4 4 21 -2 26 -18 13 -13 -11 -17 -11 -20 -1 -3 6 -10 9
-16 5 -15 -9 -58 -13 -53 -5 2 4 -6 7 -19 7 -13 0 -21 -4 -18 -9 3 -4 -5 -5
-18 0 -25 8 -27 8 -72 1 -15 -2 -30 -1 -32 3 -3 4 -21 4 -40 0 -20 -4 -35 -4
-35 1 0 5 -5 9 -11 9 -5 0 -8 -3 -6 -7 3 -5 -6 -9 -19 -9 -13 -1 -24 2 -24 7
0 6 -10 5 -21 -2 -17 -9 -20 -8 -14 2 5 8 4 10 -4 5 -18 -12 -61 -15 -61 -5 0
5 -5 9 -11 9 -5 0 -8 -3 -6 -7 3 -5 -6 -9 -19 -9 -13 -1 -24 2 -24 7 0 6 -10
5 -21 -2 -16 -8 -20 -8 -14 1 5 9 2 10 -11 3 -11 -5 -31 -8 -46 -7 -28 1 -32
-5 -28 -40 1 -13 -2 -16 -12 -10 -7 4 -4 -2 6 -14 14 -17 16 -22 5 -22 -11 0
-11 -2 1 -10 9 -6 11 -10 3 -10 -7 0 -10 -7 -7 -15 4 -8 0 -23 -7 -32 -8 -10
-9 -14 -2 -10 6 4 14 3 18 -3 3 -5 2 -10 -3 -10 -5 0 -7 -11 -4 -25 2 -14 -2
-33 -9 -42 -12 -14 -12 -16 0 -9 11 7 13 0 9 -33 -2 -22 0 -41 4 -41 4 0 3
-11 -2 -25 -7 -18 -6 -25 3 -25 7 0 8 -3 2 -8 -6 -4 -10 -66 -10 -150 0 -88 4
-142 10 -142 6 0 3 -5 -5 -10 -13 -9 -13 -11 0 -20 12 -8 13 -10 1 -10 -8 0
-11 -3 -8 -6 3 -4 1 -16 -5 -28 -10 -18 -9 -19 3 -9 12 10 15 8 15 -8 0 -13
-5 -18 -15 -14 -10 4 -11 2 -4 -7 14 -19 14 -139 -1 -131 -8 5 -8 3 0 -8 6 -8
11 -28 11 -45 0 -16 3 -36 8 -44 5 -9 4 -11 -4 -6 -8 5 -10 -1 -6 -24 3 -17 0
-40 -6 -52 -8 -14 -8 -18 0 -14 15 10 14 -17 -1 -33 -10 -11 -10 -13 0 -7 8 5
12 -1 12 -19 0 -17 -4 -24 -12 -19 -8 5 -8 3 -2 -7 13 -20 14 -130 1 -122 -6
4 -7 1 -1 -8 13 -21 14 -119 0 -119 -6 0 -4 -5 4 -10 8 -5 11 -10 7 -10 -4 0
-3 -10 4 -21 8 -16 8 -20 0 -14 -8 4 -10 -3 -6 -25 3 -17 0 -40 -6 -52 -8 -14
-8 -18 0 -14 15 10 14 -17 -1 -33 -8 -9 -8 -11 -2 -8 8 5 12 -8 11 -43 0 -33
-4 -47 -11 -43 -6 4 -6 1 1 -8 13 -16 12 -36 -1 -58 -6 -9 -5 -12 1 -8 7 5 11
-10 10 -43 0 -33 -4 -47 -11 -43 -8 5 -8 3 0 -8 6 -8 11 -28 11 -45 0 -16 3
-36 8 -44 5 -9 4 -11 -4 -6 -8 5 -10 -1 -6 -24 3 -17 0 -40 -6 -52 -8 -14 -8
-18 0 -14 15 10 14 -17 -2 -33 -9 -11 -9 -13 1 -7 8 5 12 -1 12 -19 0 -17 -4
-24 -12 -19 -8 5 -8 3 -2 -7 13 -20 14 -130 1 -122 -6 4 -7 1 -1 -8 13 -21 14
-119 0 -119 -6 0 -4 -5 4 -10 8 -5 11 -10 7 -10 -4 0 -3 -10 4 -21 8 -16 8
-20 0 -14 -8 4 -10 -3 -6 -25 3 -17 0 -40 -6 -52 -8 -14 -8 -18 0 -14 15 10
14 -17 -1 -33 -8 -9 -8 -11 -2 -8 8 5 12 -8 11 -43 0 -33 -4 -47 -11 -43 -6 4
-6 1 1 -8 13 -16 12 -36 -1 -58 -6 -9 -5 -12 1 -8 7 5 11 -10 10 -43 0 -33 -4
-47 -11 -43 -8 5 -8 3 0 -8 6 -8 11 -28 11 -45 0 -16 3 -36 8 -44 5 -9 4 -11
-4 -6 -8 5 -10 -1 -6 -24 3 -17 0 -40 -6 -52 -8 -14 -8 -18 0 -14 15 10 14
-17 -2 -33 -9 -11 -9 -13 0 -7 9 5 13 -1 13 -19 0 -17 -4 -24 -12 -19 -8 5 -8
3 -2 -7 14 -21 14 -130 0 -122 -8 5 -8 3 0 -8 7 -9 11 -67 10 -162 -1 -92 3
-147 9 -147 6 0 3 -5 -5 -10 -13 -9 -13 -11 0 -20 12 -8 13 -10 1 -10 -8 0
-11 -3 -8 -6 3 -4 1 -16 -5 -28 -10 -18 -9 -19 3 -9 12 10 15 8 15 -8 0 -13
-5 -18 -15 -14 -10 4 -11 2 -4 -7 14 -19 15 -121 0 -130 -9 -6 -9 -8 1 -8 10
0 12 -8 7 -30 -5 -22 -3 -30 7 -30 8 0 6 -5 -5 -11 -12 -7 -15 -14 -8 -22 5
-7 8 -40 8 -75 -1 -34 3 -64 8 -66 6 -3 6 -5 -1 -5 -7 -1 -10 -27 -7 -76 2
-54 0 -75 -9 -75 -6 0 -3 -7 8 -16 18 -15 18 -15 0 -10 -14 5 -16 3 -9 -6 6
-8 10 -70 9 -151 -1 -85 3 -137 9 -137 6 0 3 -5 -5 -10 -13 -9 -13 -11 0 -20
12 -8 13 -10 1 -10 -8 0 -11 -3 -8 -6 3 -4 1 -16 -5 -28 -10 -18 -9 -19 3 -9
12 10 15 8 15 -8 0 -13 -5 -18 -15 -14 -10 4 -11 2 -4 -7 14 -19 15 -121 0
-130 -9 -6 -9 -8 1 -8 10 0 12 -8 7 -30 -5 -22 -3 -30 7 -30 8 0 7 -4 -5 -11
-9 -5 -17 -15 -17 -22 0 -9 3 -8 9 1 4 7 8 -20 9 -64 1 -48 -3 -83 -11 -93
-10 -12 -9 -13 2 -7 10 7 12 -1 10 -38 -3 -27 0 -46 6 -46 7 0 7 -3 0 -8 -5
-4 -10 -34 -10 -67 0 -53 -2 -60 -19 -57 -12 2 -16 -1 -10 -9 5 -8 3 -10 -5
-5 -19 12 -200 13 -193 1 3 -5 -2 -4 -11 4 -14 11 -17 11 -17 0 0 -10 -3 -10
-12 -1 -16 16 -31 15 -22 0 5 -9 2 -9 -9 1 -14 11 -17 11 -17 0 0 -11 -2 -11
-10 1 -6 10 -10 11 -10 3 0 -9 -7 -10 -25 -3 -17 7 -25 6 -25 -1 0 -8 -5 -7
-15 1 -8 7 -15 9 -15 4 0 -10 -110 -10 -135 0 -8 3 -15 0 -15 -7 0 -8 -4 -6
-10 3 -7 11 -10 11 -10 2 0 -10 -5 -10 -21 -1 -16 8 -20 8 -14 -1 6 -9 2 -9
-14 -1 -11 7 -21 8 -21 4 0 -9 -195 -7 -210 2 -5 3 -10 2 -10 -4 0 -6 -11 -6
-30 -1 -21 6 -30 5 -30 -3 0 -8 -3 -8 -12 1 -16 16 -31 15 -22 0 6 -10 4 -10
-7 -3 -8 6 -51 10 -95 10 l-82 0 1 175 c1 111 5 178 11 182 8 6 8 8 0 8 -13 0
-13 149 0 169 6 10 6 12 -2 7 -8 -5 -12 1 -12 14 0 13 4 19 12 14 7 -5 8 -3 2
7 -13 21 -13 102 0 118 8 12 8 13 -2 7 -8 -5 -12 0 -12 14 0 13 4 19 12 14 7
-5 8 -3 2 7 -13 21 -13 102 0 118 8 12 8 13 -2 7 -8 -5 -12 0 -12 14 0 13 4
19 12 14 7 -5 8 -3 2 7 -13 21 -15 81 -2 73 7 -5 8 -2 3 7 -12 19 -14 49 -3
55 4 3 5 11 1 17 -12 19 -12 88 0 80 6 -4 7 -1 2 8 -12 19 -14 49 -3 55 4 3 5
11 1 17 -12 19 -12 88 0 80 6 -4 7 -1 2 8 -12 19 -14 49 -3 55 4 3 5 11 1 17
-12 19 -12 88 0 80 6 -4 7 -1 2 8 -12 19 -14 49 -3 55 4 3 5 11 1 17 -12 19
-12 88 0 80 6 -4 7 -1 2 8 -13 20 -13 259 0 251 5 -3 5 1 -2 9 -10 13 -11 40
-3 74 1 6 1 12 0 15 -1 3 -3 37 -4 77 -2 48 1 70 8 66 6 -4 6 0 -1 8 -10 13
-11 40 -3 74 1 6 1 12 0 15 -1 3 -3 37 -4 77 -2 48 1 70 8 66 6 -4 6 0 -1 8
-10 13 -11 40 -3 74 1 6 1 12 0 15 -1 3 -3 37 -4 77 -2 48 1 70 8 66 6 -4 6 0
-1 8 -12 15 -12 57 1 77 3 6 2 13 -3 16 -10 7 -9 75 2 92 3 6 4 14 0 18 -11
11 -12 76 0 69 6 -4 7 -1 1 8 -13 21 -14 39 -2 39 7 0 7 4 0 13 -14 17 -13 68
2 60 7 -4 7 -2 -1 7 -8 8 -9 20 -2 37 5 13 5 22 1 19 -5 -3 -9 10 -9 29 0 20
4 32 10 28 6 -4 7 -1 1 8 -13 21 -14 39 -2 39 7 0 7 4 0 13 -14 17 -13 68 2
60 7 -4 7 -2 -1 7 -8 8 -9 20 -2 37 5 13 5 22 1 19 -5 -3 -9 10 -9 29 0 20 4
32 10 28 6 -4 7 -1 1 8 -13 21 -14 39 -2 39 7 0 7 4 0 13 -14 17 -13 68 2 60
7 -4 7 -2 -1 7 -8 8 -9 20 -2 37 5 13 5 22 1 19 -5 -3 -9 10 -9 29 0 20 4 32
10 28 6 -4 7 -1 1 8 -12 20 -14 39 -3 39 6 0 7 6 2 13 -11 17 -15 49 -5 43 7
-4 8 27 2 44 -6 16 -4 78 3 94 6 13 6 16 -2 11 -12 -7 -9 34 3 54 4 5 2 12 -4
16 -5 3 -10 11 -10 16 0 6 4 8 8 5 7 -4 8 27 2 44 -6 16 -4 78 3 94 6 13 6 16
-2 11 -12 -7 -9 34 3 54 4 5 2 12 -4 16 -5 3 -10 11 -10 16 0 6 4 8 8 5 10 -6
9 25 -1 41 -5 7 -3 22 4 34 8 15 8 19 0 15 -14 -9 -14 7 0 21 8 8 8 13 0 17
-8 5 -8 13 0 28 8 15 8 19 0 14 -14 -9 -14 7 0 21 8 8 8 13 0 17 -8 5 -8 13 0
28 8 15 8 19 0 14 -14 -9 -14 7 0 21 8 8 8 13 0 17 -8 5 -8 13 0 28 8 15 8 19
0 14 -6 -4 -11 -3 -11 3 0 5 5 13 10 16 7 4 7 13 0 24 -6 12 -5 22 1 28 8 8 7
13 0 17 -6 4 -11 12 -11 17 0 6 4 8 8 5 5 -3 9 1 9 9 0 8 -4 15 -9 15 -5 0 -4
9 2 20 8 15 8 20 -1 20 -7 0 -8 7 -4 18 10 22 10 32 1 61 -5 14 -4 21 1 18 5
-4 10 0 10 8 0 8 -4 15 -9 15 -5 0 -4 9 2 20 8 15 8 20 -1 20 -7 0 -8 7 -4 18
10 22 10 32 1 61 -5 14 -4 21 1 18 5 -4 10 0 10 8 0 8 -4 15 -9 15 -5 0 -4 9
2 20 8 15 8 20 -1 20 -7 0 -8 7 -4 18 10 22 10 32 1 61 -5 14 -4 21 1 18 5 -4
10 0 10 8 0 8 -4 15 -9 15 -5 0 -4 9 2 20 8 15 8 20 -1 20 -7 0 -8 7 -4 18 10
22 10 32 1 61 -5 14 -4 21 1 18 5 -4 10 0 10 8 0 8 -4 15 -9 15 -5 0 -4 9 2
20 7 14 8 20 0 20 -11 0 -7 41 6 61 4 8 3 9 -4 5 -15 -9 -16 6 -1 21 8 8 8 13
0 17 -8 5 -8 13 0 28 8 15 8 19 0 14 -12 -8 -15 6 -4 18 10 10 11 46 1 40 -9
-6 -4 39 6 55 4 5 2 12 -4 16 -5 3 -10 11 -10 16 0 6 4 8 8 5 7 -4 8 27 2 44
-6 16 -4 78 3 94 6 13 6 16 -2 11 -13 -7 -9 35 5 56 4 7 3 9 -3 6 -5 -4 -10 6
-10 23 0 18 4 27 11 23 6 -4 5 0 -2 9 -9 11 -10 18 -2 23 6 3 7 11 3 18 -11
19 -12 78 0 70 6 -4 7 -1 1 8 -13 21 -14 39 -2 39 7 0 7 4 0 13 -14 17 -13 68
2 60 7 -4 7 -2 -1 7 -8 8 -9 20 -2 37 5 13 5 22 1 19 -5 -3 -9 10 -9 29 0 20
4 32 10 28 6 -4 7 -1 1 8 -12 20 -14 39 -3 39 6 0 7 6 2 13 -14 22 -15 60 -2
51 8 -4 9 -3 5 4 -12 20 4 35 22 20 11 -9 13 -9 9 -1 -10 15 112 15 131 0 7
-6 12 -6 11 -1 -4 21 2 28 12 14 8 -12 12 -12 16 -2 4 10 9 9 19 -5 13 -17 14
-17 7 2 -6 18 -5 19 11 6 14 -12 19 -12 26 -2 4 7 10 9 13 4 7 -11 59 -9 78 2
8 5 10 4 5 -3 -4 -7 -2 -12 3 -12 6 0 11 6 12 13 0 6 4 3 9 -8 5 -11 9 -14 9
-7 1 15 69 14 89 -1 7 -6 12 -6 11 -1 -4 21 2 28 12 14 8 -12 12 -12 16 -2 4
10 9 9 19 -5 13 -17 14 -17 7 2 -6 18 -5 19 11 6 14 -12 19 -12 26 -2 4 7 10
9 13 4 7 -11 59 -9 78 2 8 6 10 4 4 -5 -6 -10 -4 -12 10 -7 9 4 24 2 32 -5 8
-6 13 -7 12 -2 -4 21 2 28 12 14 8 -12 12 -12 16 -2 4 10 9 9 19 -5 13 -17 14
-17 7 2 -6 18 -5 19 11 6 14 -12 19 -12 26 -2 5 9 9 10 14 2 4 -6 12 -9 17 -5
5 3 17 0 25 -7 8 -7 14 -8 13 -3 -4 21 2 28 11 14 8 -12 11 -13 19 -1 5 8 11
9 15 3 3 -5 18 -7 32 -4 21 4 25 2 19 -9 -7 -11 -6 -12 6 -2 8 6 39 10 69 9
30 -1 58 3 62 8 5 7 8 3 8 -8 0 -20 0 -20 15 0 11 14 14 15 15 4 0 -13 1 -13
10 0 8 12 10 12 10 -5 0 -14 3 -16 8 -7 10 14 70 14 90 -1 7 -6 12 -6 11 -1
-4 21 2 28 12 14 8 -12 12 -12 16 -2 4 10 9 9 19 -5 13 -17 14 -17 7 2 -6 18
-5 19 11 6 14 -12 19 -12 26 -2 4 7 10 9 13 4 7 -11 59 -9 78 2 7 5 10 4 6 -1
-8 -13 116 -12 125 1 4 6 8 1 8 -9 0 -20 0 -20 15 0 9 12 14 14 15 6 0 -7 5
-10 10 -7 6 4 18 1 26 -6 8 -7 14 -8 13 -3 -4 21 2 28 12 14 8 -12 12 -12 16
-2 4 10 9 9 19 -5 13 -17 14 -17 7 2 -6 18 -5 19 11 6 14 -12 19 -12 26 -2 5
9 9 10 14 2 4 -6 12 -9 17 -5 5 3 17 0 25 -7 8 -7 14 -8 13 -3 -4 21 2 28 11
14 8 -12 11 -13 19 -1 5 8 11 9 15 3 3 -5 18 -7 32 -4 21 4 25 2 19 -9 -5 -8
1 -5 13 5 22 19 22 19 22 0 0 -14 3 -15 8 -6 10 14 70 14 90 -1 7 -6 12 -6 11
-1 -4 21 2 28 12 14 8 -12 12 -12 16 -2 4 10 9 9 19 -5 13 -17 14 -17 7 2 -6
18 -5 19 11 6 14 -12 19 -12 26 -2 4 7 10 9 13 4 7 -11 59 -9 78 2 7 5 10 4 6
-1 -3 -6 18 -9 51 -7 31 1 62 -3 70 -9 7 -6 12 -7 11 -2 -4 21 2 28 12 14 7
-9 12 -11 15 -4 3 7 20 8 47 4 24 -3 55 -3 70 1 15 4 27 4 27 1 0 -10 74 -7
90 3 10 6 12 4 6 -10 -5 -15 -4 -16 8 -6 8 7 20 10 26 6 5 -3 10 -1 10 5 0 6
5 8 12 3 18 -11 52 -10 60 2 5 7 8 7 8 0 0 -10 218 -12 245 -1 8 3 15 2 15 -2
0 -9 74 -7 90 3 10 6 12 4 6 -10 -5 -15 -4 -16 8 -6 8 7 20 10 26 6 5 -3 10
-1 10 5 0 6 5 8 12 4 15 -10 82 -9 98 1 10 6 12 4 6 -10 -5 -15 -4 -16 8 -6 8
7 20 10 26 6 5 -3 10 -1 10 5 0 6 5 8 12 3 18 -11 52 -10 60 2 5 7 8 7 8 0 0
-10 218 -12 245 -1 8 3 15 2 15 -2 0 -8 116 -6 137 2 7 3 13 0 13 -6 0 -9 3
-9 11 -1 8 8 20 8 35 3 14 -6 26 -6 29 0 3 5 18 5 33 1 15 -5 36 -5 47 -1 11
4 32 4 47 -1 15 -4 30 -4 33 1 3 5 16 5 30 0 15 -6 27 -6 30 0 3 5 12 7 19 4
25 -10 106 -9 106 1 0 6 5 3 10 -5 9 -13 10 -13 10 0 0 13 1 13 10 0 7 -11 10
-11 10 -2 0 7 3 11 8 8 12 -7 160 -11 167 -4 4 4 18 3 31 -2 14 -6 26 -6 29 0
3 5 12 7 19 4 20 -8 186 -10 186 -3 0 4 16 3 35 -1 19 -4 35 -5 35 -1 0 5 151
6 170 1 24 -7 90 -3 90 5 0 6 4 4 9 -4 6 -9 11 -10 15 -2 4 6 12 8 18 5 6 -4
40 -7 75 -6 46 0 61 -3 56 -11 -5 -8 -2 -8 9 0 8 7 18 10 21 6 4 -3 7 0 7 8 1
10 4 9 11 -4 8 -14 14 -15 24 -7 9 7 15 8 19 1 5 -7 15 -7 31 -1 14 5 25 6 25
1 0 -5 22 -8 50 -7 27 1 50 -1 50 -6 0 -4 6 -5 14 -2 8 3 17 1 20 -5 4 -6 18
-6 36 -1 20 6 30 5 30 -2 0 -6 3 -8 7 -5 3 4 12 2 20 -4 9 -8 13 -8 13 0 0 7
8 8 24 1 13 -5 27 -6 30 -3 3 4 6 1 6 -4 0 -12 18 -12 38 1 8 5 11 3 10 -5 -2
-8 10 -12 35 -12 20 0 37 -3 37 -6 0 -6 31 -12 78 -15 12 0 22 -4 22 -7 0 -4
7 -10 16 -13 8 -3 12 -2 9 4 -3 6 -1 10 4 10 6 0 11 -8 11 -17 0 -14 2 -15 9
-4 6 9 11 10 15 2 4 -6 12 -9 17 -6 5 4 9 0 9 -7 0 -9 3 -9 10 2 7 11 10 11
10 2 0 -7 4 -10 10 -7 6 3 10 2 10 -4 0 -6 6 -8 14 -5 8 3 17 1 20 -5 4 -6 13
-8 21 -4 8 3 15 -1 15 -8 0 -7 2 -10 6 -7 3 3 27 -3 53 -13 27 -10 51 -15 55
-12 3 4 6 1 6 -6 0 -7 4 -9 10 -6 5 3 10 1 10 -5 0 -6 4 -9 10 -5 5 3 17 2 27
-3 77 -40 106 -51 114 -46 5 3 9 0 9 -5 0 -6 3 -10 8 -10 20 3 32 -2 26 -13
-4 -6 -3 -8 3 -5 5 3 39 -8 74 -25 35 -17 68 -32 72 -32 4 -1 12 -8 17 -16 5
-8 10 -11 10 -7 0 7 77 -30 90 -43 3 -3 26 -17 53 -30 26 -14 47 -28 47 -32 0
-5 7 -8 15 -8 8 0 15 -5 15 -11 0 -5 4 -8 8 -5 5 3 18 -3 29 -14 12 -10 24
-16 27 -13 3 4 6 1 6 -5 0 -6 18 -21 40 -33 22 -13 40 -26 40 -31 0 -4 7 -8
15 -8 8 0 15 -4 15 -10 0 -5 4 -10 10 -10 10 0 37 -20 72 -52 10 -10 21 -18
25 -18 4 0 18 -12 30 -27 13 -14 23 -23 23 -19 0 4 21 -13 47 -38 26 -25 53
-46 61 -46 7 0 11 -3 9 -7 -2 -5 11 -23 29 -41 19 -18 34 -30 34 -26 0 4 13
-9 29 -29 15 -20 31 -34 35 -30 3 3 6 -1 6 -11 0 -9 5 -14 10 -11 6 3 10 1 10
-5 0 -7 14 -25 30 -40 16 -15 30 -33 30 -40 0 -6 4 -9 9 -5 6 3 15 -4 21 -15
11 -20 38 -53 85 -103 12 -12 24 -30 28 -40 3 -9 11 -17 17 -17 6 0 9 -4 6 -8
-3 -5 4 -15 15 -22 10 -8 19 -18 19 -23 0 -4 9 -17 20 -29 11 -12 20 -28 20
-35 0 -8 4 -12 9 -9 11 7 23 -22 14 -36 -3 -6 -1 -8 5 -4 6 3 16 -7 24 -24 7
-16 19 -30 27 -30 8 0 11 -3 8 -6 -4 -4 2 -19 13 -34 11 -16 20 -33 20 -39 0
-6 4 -11 9 -11 10 0 37 -60 33 -73 -1 -5 2 -6 8 -2 5 3 10 -1 10 -9 0 -9 5
-16 11 -16 6 0 9 -6 6 -12 -2 -7 5 -21 16 -30 11 -10 17 -18 13 -18 -4 0 -1
-10 6 -22 7 -13 11 -26 10 -30 -1 -5 2 -8 7 -8 5 0 11 -8 13 -17 3 -10 6 -22
8 -28 1 -5 11 -22 22 -37 10 -16 16 -32 13 -38 -3 -5 -1 -10 4 -10 6 0 11 -9
11 -19 0 -10 6 -21 14 -24 9 -3 12 -15 9 -31 -3 -14 -1 -26 5 -26 7 0 21 -30
22 -48 0 -1 6 -15 14 -31 9 -16 12 -31 9 -35 -4 -3 -1 -6 5 -6 7 0 11 -3 10
-7 -2 -12 12 -66 23 -85 5 -10 9 -27 9 -38 0 -11 4 -20 8 -20 5 0 9 -6 10 -12
6 -62 12 -83 20 -81 5 1 8 -8 8 -20 -1 -12 3 -28 8 -36 9 -12 8 -13 -4 -6 -12
7 -13 6 -3 -7 7 -8 14 -27 15 -42 1 -14 5 -26 9 -26 4 0 7 -12 8 -27 1 -54 2
-63 11 -63 5 0 7 -11 4 -25 -3 -16 0 -25 8 -25 9 0 8 -3 -2 -10 -8 -5 -10 -10
-5 -10 6 0 11 -8 11 -17 1 -10 5 -45 9 -78 4 -33 8 -78 9 -100 0 -22 5 -43 10
-47 6 -4 4 -14 -5 -24 -8 -10 -9 -15 -2 -11 13 8 15 -17 15 -268 0 -149 -5
-243 -13 -261 -2 -5 -4 -30 -4 -56 0 -27 -2 -48 -5 -48 -3 0 -5 -12 -6 -27 -1
-29 -10 -99 -19 -143 -3 -14 -8 -38 -11 -55 -4 -16 -6 -38 -6 -48 0 -9 -2 -16
-6 -13 -4 2 -8 -6 -8 -17 -1 -12 -5 -38 -9 -57 -3 -19 -7 -41 -7 -47 -1 -7 -5
-13 -9 -13 -4 0 -6 -9 -4 -20 2 -11 -1 -22 -6 -25 -5 -4 -7 -11 -4 -16 4 -5 2
-9 -4 -9 -5 0 -8 -12 -6 -26 1 -14 -3 -28 -10 -30 -7 -3 -11 -14 -8 -25 3 -10
1 -19 -4 -19 -5 0 -9 -10 -10 -22 -1 -11 -8 -25 -15 -29 -10 -7 -11 -9 0 -9
10 0 10 -4 0 -22 -7 -13 -13 -30 -13 -38 -1 -8 -6 -14 -12 -13 -6 1 -10 -5 -8
-15 1 -9 -2 -26 -8 -37 -6 -11 -12 -22 -12 -25 -1 -3 -9 -22 -18 -44 -9 -21
-15 -42 -12 -46 3 -5 2 -10 -3 -12 -13 -5 -53 -89 -47 -99 4 -5 1 -9 -5 -9 -6
0 -15 -11 -20 -25 -5 -14 -15 -25 -22 -25 -9 0 -8 -3 2 -10 8 -5 10 -10 4 -10
-10 0 -22 -26 -22 -47 0 -3 -4 -9 -9 -12 -5 -3 -20 -26 -34 -51 -13 -25 -34
-59 -46 -76 -13 -17 -23 -35 -23 -41 0 -5 -9 -18 -20 -28 -12 -11 -18 -25 -15
-34 3 -8 3 -12 -1 -8 -7 6 -53 -52 -56 -70 0 -5 -8 -13 -17 -20 -9 -7 -12 -13
-7 -13 5 0 -3 -11 -18 -25 -14 -13 -26 -29 -26 -34 0 -6 -8 -15 -17 -20 -10
-6 -15 -11 -11 -11 8 0 -19 -35 -60 -76 -13 -13 -21 -24 -18 -24 14 0 -263
-283 -338 -345 -27 -22 -62 -53 -78 -68 -15 -15 -33 -25 -38 -22 -6 3 -10 0
-10 -7 0 -8 -13 -22 -30 -31 -16 -10 -30 -23 -30 -28 0 -6 -5 -7 -10 -4 -6 3
-13 -1 -16 -9 -3 -9 -12 -16 -19 -16 -6 0 -20 -9 -30 -20 -10 -11 -23 -20 -30
-20 -7 0 -20 -9 -30 -20 -10 -11 -24 -20 -32 -20 -7 0 -13 -4 -13 -9 0 -5 -10
-13 -22 -16 -11 -4 -31 -18 -43 -31 -12 -13 -25 -21 -28 -17 -4 3 -16 -2 -27
-12 -11 -10 -20 -14 -20 -9 0 5 -4 4 -8 -1 -8 -12 -64 -49 -74 -50 -4 0 -13
-6 -20 -12 -6 -7 -18 -13 -25 -13 -7 0 -13 -4 -13 -9 0 -6 -9 -8 -20 -6 -11 2
-20 0 -20 -6 0 -5 -7 -9 -15 -9 -8 0 -15 -5 -15 -10 0 -6 -3 -10 -7 -9 -16 2
-53 -14 -53 -23 0 -6 -7 -8 -15 -4 -8 3 -15 1 -15 -5 0 -6 -4 -7 -10 -4 -5 3
-10 1 -10 -4 0 -6 -9 -11 -19 -11 -11 0 -23 -5 -26 -10 -4 -6 -11 -8 -16 -5
-5 4 -9 1 -9 -5 0 -6 -6 -10 -12 -9 -7 1 -30 -5 -50 -14 -21 -10 -44 -17 -53
-17 -8 0 -15 -5 -15 -11 0 -5 -4 -7 -10 -4 -5 3 -10 1 -10 -5 0 -6 -4 -9 -8
-6 -9 5 -67 -13 -91 -28 -10 -6 -12 -5 -7 2 4 7 -8 4 -26 -7 -18 -10 -41 -17
-50 -16 -10 2 -18 -2 -18 -8 0 -5 -3 -8 -6 -5 -3 4 -37 -2 -75 -13 -39 -11
-74 -17 -79 -14 -5 3 -11 1 -15 -5 -3 -5 -20 -10 -36 -10 -17 0 -28 -3 -25 -8
2 -4 -15 -7 -39 -7 -24 1 -42 -2 -39 -6 2 -4 -9 -7 -24 -7 -34 -1 -127 -10
-127 -12 0 -2 -37 -5 -115 -10 -25 -2 -50 -7 -57 -12 -7 -5 -14 -5 -18 2 -3 6
-11 7 -17 4 -5 -4 -58 -7 -117 -8 -59 -1 -113 -6 -120 -11 -9 -5 -12 -4 -8 2
7 11 -104 10 -123 -2 -8 -5 -11 -4 -7 2 3 5 -8 9 -28 9 -19 -1 -35 -5 -35 -10
0 -6 -5 -5 -12 2 -16 16 -31 15 -22 0 6 -10 4 -10 -8 0 -12 10 -18 10 -23 1
-6 -8 -10 -7 -16 2 -8 12 -11 11 -19 -1 -8 -12 -10 -12 -10 -1 0 11 -3 11 -17
0 -11 -10 -14 -10 -9 -1 9 15 1 15 -26 1 -11 -6 -18 -7 -15 -2 3 4 -55 8 -128
8 -86 0 -131 -4 -127 -10 4 -6 1 -6 -9 0 -20 15 -192 12 -197 -3 -2 -7 2 -12
9 -12 8 0 5 -6 -7 -16 -10 -8 -14 -13 -8 -10 7 3 15 -1 18 -10 3 -8 2 -12 -4
-9 -5 3 -8 -4 -7 -15 1 -11 6 -20 12 -20 5 0 4 -4 -4 -9 -13 -8 -13 -12 0 -27
9 -11 9 -15 2 -10 -9 5 -13 0 -13 -13 0 -12 6 -21 13 -21 8 0 8 -3 2 -8 -15
-10 -16 -334 -1 -325 8 5 8 3 0 -8 -13 -16 -12 -148 1 -168 5 -10 4 -12 -4 -7
-13 8 -9 -33 5 -56 5 -8 2 -9 -11 -4 -15 5 -16 4 -5 -9 11 -13 87 -15 588 -14
363 0 581 4 588 10 8 7 14 7 18 0 4 -5 18 -6 34 -2 15 3 48 6 74 6 27 0 48 2
48 5 0 3 25 5 55 5 30 0 55 3 55 7 0 4 9 5 20 3 11 -2 20 0 20 4 0 4 16 7 35
6 19 -1 35 1 35 5 0 4 10 6 23 6 12 -1 28 2 35 7 8 6 12 5 12 -4 0 -12 2 -12
9 0 5 8 18 12 30 8 12 -3 21 -1 21 4 0 5 11 9 24 9 13 0 27 6 29 13 4 9 6 9 6
0 1 -9 8 -10 25 -3 13 5 27 6 30 3 3 -4 6 -1 6 5 0 7 5 12 11 12 5 0 7 -6 3
-12 -4 -7 1 -6 12 3 10 9 27 15 37 14 9 -2 17 2 17 8 0 5 3 7 7 4 3 -4 13 -1
21 6 13 10 14 9 7 -2 -6 -11 -5 -12 6 -5 8 5 17 9 22 10 4 1 10 3 15 4 4 1 12
3 17 4 10 2 26 8 73 27 13 5 28 7 33 4 5 -4 9 -1 9 5 0 6 4 9 8 6 4 -2 27 4
51 15 24 10 51 19 62 19 10 0 21 5 24 11 4 6 13 8 21 5 8 -3 14 -1 14 5 0 6 5
7 10 4 6 -3 10 -1 10 4 0 6 9 11 20 11 11 0 20 4 20 9 0 6 9 8 20 6 11 -2 20
1 20 6 0 6 5 7 10 4 6 -3 10 -1 10 5 0 6 5 8 10 5 6 -3 10 -1 10 4 0 6 3 10 8
9 16 -3 61 15 56 23 -3 5 1 6 9 3 8 -3 22 2 31 11 9 9 16 14 16 11 0 -4 18 3
40 14 22 11 40 18 40 15 0 -3 10 3 22 14 11 11 25 18 29 15 4 -2 10 0 14 6 4
6 11 8 16 5 5 -4 9 -2 9 4 0 5 16 15 35 22 19 7 35 17 35 21 0 4 9 8 21 8 11
0 18 4 15 9 -3 5 8 11 25 15 20 4 28 10 23 17 -5 9 0 10 14 7 15 -4 22 -2 22
9 0 8 5 11 10 8 6 -3 13 1 16 9 3 9 10 16 16 16 5 0 6 -6 3 -12 -4 -7 2 -4 12
7 19 21 73 59 73 51 0 -3 12 6 26 19 15 14 30 23 33 20 4 -2 13 5 21 15 8 10
17 17 22 14 4 -3 8 0 8 5 0 6 6 11 14 11 8 0 17 7 20 16 3 8 10 12 16 9 6 -3
13 1 16 9 3 9 12 16 20 16 8 0 14 5 14 10 0 6 4 10 9 10 6 0 22 11 37 25 14
13 30 22 35 19 5 -3 9 2 9 10 0 9 4 16 9 16 4 0 20 11 35 25 14 13 26 21 26
18 0 -3 11 6 25 21 13 14 28 26 32 26 4 0 22 17 40 37 18 20 33 33 33 29 0 -3
15 9 32 29 18 19 39 35 47 35 8 0 12 3 8 6 -7 7 61 74 75 74 5 0 7 3 5 8 -3 4
1 13 9 20 8 7 14 10 14 6 0 -4 10 6 22 22 12 16 31 35 40 42 10 7 15 18 12 24
-4 6 -3 9 2 6 8 -5 52 35 64 57 3 6 8 9 13 7 4 -1 7 7 7 18 0 11 3 19 8 18 8
-3 57 43 57 54 0 4 10 15 23 23 12 9 22 25 22 36 0 11 5 17 10 14 6 -3 10 -2
10 4 0 9 24 40 63 82 9 10 17 24 17 29 0 6 5 10 10 10 6 0 10 7 10 15 0 8 5
15 10 15 6 0 10 6 10 13 0 7 9 19 20 27 11 8 20 19 20 25 0 6 9 21 19 32 11
12 17 24 14 27 -4 3 -1 6 5 6 7 0 12 6 12 14 0 8 4 16 9 18 5 1 11 9 13 17 2
8 10 22 18 32 26 30 35 44 38 58 1 7 9 20 17 28 8 8 15 21 15 29 0 8 4 14 9
14 5 0 12 10 16 23 11 40 28 66 38 60 6 -4 8 0 4 10 -3 10 -2 17 3 17 6 0 10
6 10 14 0 7 10 26 22 42 13 15 16 24 8 19 -8 -5 -4 5 8 22 12 17 22 38 22 46
0 9 5 17 10 19 6 2 12 13 13 26 0 12 5 22 10 22 5 0 7 7 3 15 -3 8 0 14 6 12
7 -1 13 4 14 11 1 6 3 14 4 17 1 3 3 10 4 15 0 6 6 14 12 18 6 4 10 15 9 24
-2 9 4 19 12 22 8 3 11 11 8 16 -4 6 3 27 14 46 12 19 15 32 9 28 -10 -6 -10
-5 -1 8 7 8 10 18 6 21 -3 4 2 7 13 8 10 0 14 3 8 5 -11 5 -4 28 25 84 4 8 7
23 5 33 -1 9 2 17 7 17 5 0 9 12 9 26 0 14 4 23 8 20 4 -2 9 10 10 27 2 17 7
36 12 41 4 4 6 15 3 22 -3 8 -1 14 4 14 8 0 12 15 15 58 1 6 5 12 10 12 5 0 6
5 3 10 -4 6 -1 18 7 27 11 14 11 16 -2 8 -12 -6 -13 -5 -2 6 6 7 12 21 12 31
0 10 6 18 13 18 8 0 7 4 -3 10 -9 6 -11 10 -3 10 7 0 10 7 7 15 -3 8 -2 20 2
27 8 12 13 34 15 68 1 8 5 20 8 25 4 6 6 24 6 40 0 17 3 32 7 35 4 3 8 23 10
44 1 20 5 39 9 41 3 3 5 18 3 35 -2 17 0 29 4 26 4 -2 8 19 9 47 1 29 5 75 7
102 3 28 6 64 7 82 1 20 6 30 13 26 6 -4 5 1 -3 11 -10 12 -11 20 -3 28 8 8 8
17 1 30 -6 11 -6 18 0 18 10 0 9 25 -1 36 -4 3 -3 16 1 28 9 25 8 312 -1 321
-3 4 -3 19 2 34 4 15 3 35 -2 44 -6 12 -5 17 4 17 8 0 9 3 3 8 -10 7 -13 26
-16 102 -1 25 -5 50 -11 57 -6 7 -5 14 2 18 6 3 7 11 4 17 -6 10 -12 44 -16
98 -1 8 -6 18 -12 22 -7 5 -7 8 2 8 8 0 10 5 5 12 -4 7 -8 26 -9 41 -2 16 -6
36 -10 45 -4 10 -6 25 -5 35 1 10 -3 25 -9 33 -10 11 -10 14 0 14 10 0 10 3 0
15 -7 9 -10 18 -7 22 4 3 2 12 -5 20 -6 7 -8 16 -5 20 4 3 2 12 -4 20 -6 7 -8
13 -5 13 4 0 2 8 -3 19 -6 10 -11 35 -13 55 -1 20 -5 36 -9 36 -4 0 -6 13 -5
29 1 17 -2 28 -6 25 -4 -3 -8 1 -9 8 0 12 -5 33 -12 61 -2 6 -9 25 -16 40 -6
16 -9 33 -5 38 3 5 0 9 -6 9 -7 0 -10 6 -7 14 3 7 -1 23 -8 33 -8 11 -16 32
-19 47 -3 14 -11 39 -19 55 -11 22 -12 32 -3 41 8 8 6 9 -7 4 -10 -3 -17 -3
-16 2 5 17 -13 74 -22 74 -5 0 -8 3 -8 8 4 24 -2 42 -13 36 -8 -5 -9 0 -6 14
4 12 2 22 -3 22 -5 0 -8 3 -7 8 1 4 -3 17 -10 28 -6 12 -8 24 -5 28 3 3 1 6
-5 6 -7 0 -12 7 -12 15 0 17 -20 56 -33 66 -5 3 -8 8 -6 10 6 11 -14 48 -23
43 -6 -4 -8 -3 -5 3 7 12 -14 63 -26 63 -5 0 -5 5 -2 10 3 6 0 13 -9 16 -8 3
-12 12 -9 20 3 8 0 14 -7 14 -6 0 -8 5 -5 10 3 6 1 10 -4 10 -6 0 -11 7 -11
16 0 9 -10 25 -22 35 -11 11 -16 19 -9 19 9 0 8 4 -1 14 -7 8 -16 12 -20 10
-4 -3 -5 4 -3 16 2 11 -1 19 -7 17 -6 -1 -12 7 -14 18 -1 11 -8 21 -13 23 -6
2 -11 11 -11 19 0 9 -10 24 -22 34 -11 11 -18 19 -14 19 4 0 0 7 -8 16 -9 8
-16 25 -16 36 0 12 -3 18 -6 15 -8 -7 -44 31 -44 46 0 5 -8 16 -17 24 -12 10
-13 12 -3 8 10 -4 9 -2 -2 8 -10 8 -18 19 -18 25 0 5 -7 12 -15 16 -8 3 -15
13 -15 21 0 9 -4 13 -10 10 -5 -3 -10 1 -10 9 0 8 -13 29 -30 46 -16 17 -30
35 -30 40 0 6 -4 10 -10 10 -5 0 -10 7 -10 16 0 8 -3 13 -7 11 -5 -3 -19 12
-32 34 -14 21 -28 36 -33 33 -4 -3 -8 2 -8 10 0 9 -4 16 -9 16 -5 0 -19 16
-32 35 -13 19 -32 38 -42 41 -9 3 -15 9 -12 13 2 5 -10 22 -28 39 -45 44 -57
59 -49 66 3 4 -1 4 -9 1 -10 -4 -20 3 -29 19 -7 14 -17 23 -22 20 -4 -3 -8 2
-8 11 0 9 -4 13 -10 10 -5 -3 -10 -2 -10 4 0 14 -47 60 -54 54 -3 -3 -8 2 -12
11 -3 9 -13 16 -21 16 -8 0 -11 4 -8 10 3 5 -5 15 -19 21 -14 7 -23 16 -20 20
3 5 -2 9 -10 9 -9 0 -16 7 -16 15 0 8 -3 14 -7 13 -15 -3 -43 14 -37 23 3 5 0
9 -7 9 -6 0 -22 12 -35 26 -14 15 -29 22 -37 18 -6 -4 -9 -4 -5 1 7 7 -14 35
-27 35 -4 0 -13 6 -20 13 -30 26 -44 37 -50 37 -3 0 -13 8 -23 18 -38 35 -60
50 -66 45 -3 -4 -6 -1 -6 6 0 7 -4 10 -8 7 -5 -3 -15 4 -22 15 -8 10 -20 19
-27 19 -7 0 -13 5 -13 11 0 5 -4 8 -9 4 -6 -3 -13 0 -18 7 -4 7 -20 19 -35 27
-15 8 -36 22 -46 31 -9 9 -23 15 -30 12 -6 -2 -12 4 -12 13 0 9 -4 14 -9 10
-5 -3 -16 1 -24 9 -8 8 -17 12 -21 9 -3 -4 -6 -1 -6 6 0 7 -4 9 -10 6 -5 -3
-10 -1 -10 4 0 6 -7 11 -15 11 -8 0 -15 3 -15 8 0 4 -34 23 -75 42 -41 19 -75
39 -75 43 0 5 -4 5 -10 2 -5 -3 -10 -1 -10 5 0 6 -4 8 -10 5 -5 -3 -10 -1 -10
4 0 6 -9 11 -20 11 -11 0 -20 5 -20 11 0 5 -4 7 -10 4 -5 -3 -10 -1 -10 5 0 6
-4 9 -9 5 -5 -3 -15 1 -23 8 -7 8 -21 13 -31 11 -9 -1 -15 1 -12 6 3 4 -2 11
-11 14 -10 4 -13 2 -8 -7 4 -6 -2 -4 -14 6 -11 11 -26 16 -32 12 -6 -3 -9 -1
-8 7 2 7 -3 12 -11 10 -7 -1 -19 3 -27 9 -8 6 -14 8 -14 3 0 -5 -4 -3 -9 4 -4
7 -18 14 -29 15 -12 1 -22 5 -22 9 0 4 -11 8 -25 8 -14 0 -25 4 -25 8 0 4 -10
9 -22 9 -13 1 -24 7 -26 13 -2 5 -7 8 -12 5 -4 -2 -23 3 -41 12 -19 10 -42 16
-51 15 -10 -2 -18 2 -18 8 0 6 -4 9 -8 6 -5 -3 -21 1 -36 9 -14 8 -24 10 -21
5 3 -5 -8 -2 -25 6 -16 9 -34 13 -40 9 -5 -3 -10 -2 -10 2 0 8 -15 12 -57 15
-7 1 -13 5 -13 9 0 4 -8 8 -17 8 -32 1 -62 7 -69 14 -4 4 -20 7 -35 7 -15 0
-30 6 -32 13 -4 9 -8 8 -16 -3 -8 -11 -11 -12 -11 -2 0 8 -6 12 -12 9 -7 -2
-26 2 -42 10 -18 10 -26 10 -21 3 6 -9 2 -9 -12 -1 -11 6 -23 8 -26 4 -4 -3
-14 0 -24 8 -10 8 -14 9 -10 2 5 -8 -1 -7 -20 2 -17 9 -29 11 -31 5 -2 -6 -9
-7 -15 -3 -16 10 -44 15 -94 17 -24 0 -43 3 -43 6 0 5 -57 10 -132 13 -16 0
-28 5 -28 11 0 6 -5 5 -12 -2 -7 -7 -17 -8 -29 -2 -12 7 -20 6 -24 0 -4 -6
-11 -7 -18 -3 -20 12 -78 12 -70 -1 5 -7 2 -7 -8 1 -12 10 -679 13 -3065 13
-1678 0 -3054 -3 -3057 -7z"/>
<path d="M439 1333 c0 -43 0 -601 1 -620 0 -9 19 -13 63 -13 l62 0 -1 135 0
135 166 0 166 0 0 -132 -1 -133 63 -3 62 -3 0 336 0 335 -59 0 c-38 0 -60 -4
-63 -12 -3 -7 -4 -70 -3 -140 1 -122 0 -128 -20 -129 -121 -6 -305 -2 -306 6
-1 6 -3 64 -4 130 -2 66 -3 126 -4 133 -1 8 -20 12 -61 12 l-60 0 -1 -37z"/>
<path d="M1102 1363 c2 -5 60 -93 130 -198 l126 -190 0 -115 c0 -178 -7 -160
62 -160 69 0 62 -18 62 160 l0 115 135 195 134 195 -67 3 c-37 2 -72 1 -78 -1
-6 -3 -49 -64 -96 -136 -46 -72 -86 -131 -89 -131 -3 0 -43 61 -89 135 l-83
135 -75 0 c-42 0 -74 -3 -72 -7z"/>
<path d="M1809 1358 c0 -15 0 -640 0 -650 1 -5 28 -8 61 -8 68 0 63 -10 61
118 -1 39 2 72 6 73 5 0 65 2 134 3 116 3 131 6 177 31 137 74 163 267 50 376
-61 59 -104 69 -310 69 -135 0 -178 -3 -179 -12z m366 -122 c89 -37 92 -168 4
-213 -15 -8 -67 -13 -136 -13 l-111 0 0 120 0 120 104 0 c68 0 117 -5 139 -14z"/>
<path d="M2457 1363 c-2 -5 -3 -154 -3 -333 l1 -325 252 -3 251 -2 -1 62 -2
62 -187 0 -188 0 0 73 c0 52 4 73 13 73 6 0 88 2 181 3 l170 2 0 58 1 57 -182
0 -183 0 0 80 0 80 113 -1 c61 0 147 0 189 0 l77 1 -1 60 -1 60 -248 0 c-136
0 -249 -3 -252 -7z"/>
<path d="M3059 1165 c0 -113 0 -248 0 -300 0 -52 0 -111 0 -130 l1 -35 63 0
63 0 -1 103 c-1 56 0 107 2 113 2 6 28 11 63 10 59 -1 59 -1 106 -56 26 -30
69 -81 97 -112 l50 -58 74 0 c40 0 73 3 73 8 -1 4 -45 57 -99 117 l-99 110 47
21 c81 36 126 118 117 213 -7 64 -26 101 -74 142 -58 49 -102 57 -303 59
l-179 1 -1 -206z m388 67 c50 -27 60 -111 19 -155 -32 -34 -52 -38 -176 -35
l-105 3 0 102 -1 102 66 3 c85 4 169 -5 197 -20z"/>
<path d="M9381 1290 c-84 -32 -127 -101 -115 -180 13 -84 78 -127 219 -146 68
-8 110 -27 130 -58 14 -21 15 -29 3 -53 -39 -82 -193 -83 -268 -3 l-28 30 -39
-22 c-21 -12 -40 -23 -42 -24 -8 -6 43 -75 70 -95 90 -64 288 -57 369 13 69
60 71 189 3 250 -25 23 -79 45 -128 52 -97 15 -148 29 -166 47 -50 50 6 111
101 111 49 -1 95 -18 124 -47 14 -14 19 -14 56 5 22 11 40 25 40 31 0 6 -15
26 -33 44 -61 61 -201 82 -296 45z"/>
<path d="M7128 1287 c-120 -34 -200 -151 -200 -293 0 -131 63 -229 177 -273
70 -27 193 -23 258 8 202 98 209 422 11 532 -62 35 -172 47 -246 26z m169
-102 c50 -21 72 -42 94 -90 41 -88 15 -207 -56 -261 -34 -26 -46 -29 -110 -28
-88 0 -134 25 -166 92 -85 174 68 358 238 287z"/>
<path d="M4223 999 l0 -291 161 4 c158 3 162 4 216 34 61 34 113 100 131 167
16 60 6 175 -21 227 -30 59 -82 106 -144 129 -41 15 -80 19 -197 20 l-146 2 0
-292z m309 170 c64 -32 100 -94 99 -168 -1 -129 -76 -188 -233 -186 l-63 1 -2
174 c-2 96 -1 180 2 187 5 15 164 9 197 -8z"/>
<path d="M4810 1000 l0 -290 215 0 c184 0 215 2 216 15 1 8 2 32 3 53 l1 37
-158 1 c-86 0 -160 4 -164 7 -6 6 -6 24 -4 102 1 25 2 25 84 24 213 -2 225 -1
229 24 2 12 1 34 -1 50 l-3 27 -154 0 -154 0 -1 30 c-1 17 -1 41 -1 55 0 14 0
31 1 38 1 10 38 12 161 11 176 -1 163 -6 163 61 0 14 -1 30 -2 35 -1 6 -80 10
-216 10 l-215 0 0 -290z"/>
<path d="M5316 1253 c9 -21 18 -45 21 -53 3 -8 14 -33 23 -55 14 -32 157 -374
177 -422 3 -8 26 -13 62 -13 l57 0 48 118 c27 64 57 135 66 157 10 22 41 96
70 165 29 69 54 128 57 133 2 4 -24 7 -59 7 l-64 0 -69 -177 c-38 -98 -77
-198 -88 -223 l-19 -45 -63 160 c-34 88 -73 188 -86 223 l-24 62 -63 0 -62 0
16 -37z"/>
<path d="M5959 1095 c0 -107 0 -224 0 -260 0 -36 0 -78 0 -95 l1 -30 215 0
c228 0 218 -2 218 45 0 8 -1 26 -2 40 l-1 25 -137 -1 c-76 0 -148 0 -160 0
-21 1 -23 6 -23 65 l0 65 150 -1 c82 0 153 3 157 5 5 3 8 18 7 34 -1 15 -3 36
-3 46 -1 15 -15 17 -156 17 l-155 0 0 68 0 67 160 -1 c176 -1 162 -6 162 61 0
14 0 30 -1 35 -1 6 -80 10 -216 10 l-215 0 -1 -195z"/>
<path d="M6480 1000 l0 -290 205 0 205 0 0 50 0 50 -150 0 -150 0 0 240 0 240
-55 0 -55 0 0 -290z"/>
<path d="M7600 1000 l0 -290 55 0 55 0 0 85 0 85 98 1 c136 1 167 9 219 58 84
80 76 242 -15 305 -59 40 -80 44 -250 45 l-162 2 0 -291z m338 163 c39 -29 51
-85 28 -128 -24 -44 -58 -55 -167 -55 l-89 0 0 99 c0 69 4 101 12 103 7 3 52
4 100 3 72 -1 94 -5 116 -22z"/>
<path d="M8160 1208 c-1 -102 -1 -397 0 -455 l0 -43 215 0 c118 0 215 3 216 8
0 4 1 27 2 52 l2 45 -160 1 -160 1 -3 66 -3 66 151 0 c84 0 154 2 157 5 4 3 6
25 6 48 l0 43 -156 3 c-176 3 -166 -2 -157 87 l5 50 158 -1 c86 0 157 2 158 5
2 8 2 63 0 84 -1 16 -18 17 -216 17 l-215 0 0 -82z"/>
<path d="M8680 1000 l0 -290 55 0 55 0 0 95 0 95 54 0 54 0 83 -95 83 -95 69
0 69 0 -29 33 c-52 60 -98 110 -120 133 -30 31 -29 38 10 52 45 16 76 51 91
103 33 113 -16 212 -123 248 -20 6 -101 11 -192 11 l-159 0 0 -290z m333 171
c59 -33 53 -138 -9 -161 -14 -6 -68 -10 -120 -10 l-94 0 0 95 0 95 98 -2 c67
-1 105 -6 125 -17z"/>
</g>
</svg>
